HIERARCHY
ROOT Hips
{
	OFFSET 0.000000 88.474243 0.000000
	CHANNELS 6 Xposition Yposition Zposition Zrotation Yrotation Xrotation 
	JOINT Hips_Spine
	{
		OFFSET 0.000000 0.000000 0.000000
		CHANNELS 3 Zrotation Yrotation Xrotation
		JOINT Spine
		{
			OFFSET 0.005100 8.711998 -0.691000
			CHANNELS 3 Zrotation Yrotation Xrotation
			JOINT Spine1
			{
				OFFSET -0.009200 8.660301 -1.275000
				CHANNELS 3 Zrotation Yrotation Xrotation
				JOINT Spine2
				{
					OFFSET 0.006300 9.852501 -1.857000
					CHANNELS 3 Zrotation Yrotation Xrotation
					JOINT Spine2_Neck
					{
						OFFSET 0.000000 0.000000 0.000000
						CHANNELS 3 Zrotation Yrotation Xrotation
						JOINT Neck
						{
							OFFSET 0.016300 11.420799 -0.263300
							CHANNELS 3 Zrotation Yrotation Xrotation
							End Site #name: Head
							{
								OFFSET -0.019200 9.262405 2.362500
							}
						}
					}
					JOINT Spine2_LeftShoulder
					{
						OFFSET 0.000000 0.000000 0.000000
						CHANNELS 3 Zrotation Yrotation Xrotation
						JOINT LeftShoulder
						{
							OFFSET 5.616900 6.732201 -0.345700
							CHANNELS 3 Zrotation Yrotation Xrotation
							JOINT LeftArm
							{
								OFFSET 10.664888 -0.183372 -2.440700
								CHANNELS 3 Zrotation Yrotation Xrotation
								JOINT LeftForeArm
								{
									OFFSET 27.459126 0.000000 0.000000
									CHANNELS 3 Zrotation Yrotation Xrotation
									End Site #name: LeftHand
									{
										OFFSET 21.306858 0.000000 0.000000
									}
								}
							}
						}
					}
					JOINT Spine2_RightShoulder
					{
						OFFSET 0.000000 0.000000 0.000000
						CHANNELS 3 Zrotation Yrotation Xrotation
						JOINT RightShoulder
						{
							OFFSET -5.580300 6.737503 -0.344400
							CHANNELS 3 Zrotation Yrotation Xrotation
							JOINT RightArm
							{
								OFFSET -10.679335 -0.188484 -2.383900
								CHANNELS 3 Zrotation Yrotation Xrotation
								JOINT RightForeArm
								{
									OFFSET -27.503529 0.000000 0.000000
									CHANNELS 3 Zrotation Yrotation Xrotation
									End Site #name: RightHand
									{
										OFFSET -21.306808 0.000000 0.000000
									}
								}
							}
						}
					}
				}
			}
		}
	}
	JOINT Hips_LeftUpLeg
	{
		OFFSET 0.000000 0.000000 0.000000
		CHANNELS 3 Zrotation Yrotation Xrotation
		JOINT LeftUpLeg
		{
			OFFSET 6.857700 -6.739601 0.312100
			CHANNELS 3 Zrotation Yrotation Xrotation
			JOINT LeftLeg
			{
				OFFSET -0.367590 -34.731552 -4.572400
				CHANNELS 3 Zrotation Yrotation Xrotation
				End Site #name: LeftFoot
				{
					OFFSET 0.367590 -34.656704 -6.067400
				}
			}
		}
	}
	JOINT Hips_RightUpLeg
	{
		OFFSET 0.000000 0.000000 0.000000
		CHANNELS 3 Zrotation Yrotation Xrotation
		JOINT RightUpLeg
		{
			OFFSET -6.876100 -6.733299 0.301000
			CHANNELS 3 Zrotation Yrotation Xrotation
			JOINT RightLeg
			{
				OFFSET 0.347353 -34.795158 -4.515900
				CHANNELS 3 Zrotation Yrotation Xrotation
				End Site #name: RightFoot
				{
					OFFSET -0.347353 -34.589367 -6.070300
				}
			}
		}
	}
}
MOTION
Frames: 18
Frame Time: 0.041667
0.855996 0.105362 -0.987799 -1.473659 2.645618 -2.260916 0.000000 -0.000000 0.000000 -0.400564 1.723104 0.724764 -2.527223 1.146536 4.994071 0.000000 0.000000 0.000000 -2.851042 1.101107 4.428274 -0.172987 -1.135977 5.225070 -2.420788 0.835558 5.322636 -1.031682 1.938722 -0.233713 -69.665807 -8.507467 60.510145 0.479270 -39.797035 -0.033217 -2.485969 0.939221 4.509911 0.565756 7.579440 2.082698 69.776604 3.682319 48.051607 0.472934 71.097332 0.992013 0.000000 0.000000 -0.000000 3.632972 13.788477 -13.223071 4.145720 8.406423 17.712516 0.000000 0.000000 0.000000 -2.457851 -8.230674 -12.768931 -1.517379 -2.887379 14.592701 
0.772134 0.106503 -1.022249 -1.434032 2.671119 -2.261577 0.000000 -0.000000 0.000000 -0.383254 1.710814 0.712819 -2.503689 1.132703 4.975265 0.000000 0.000000 0.000000 -2.828533 1.089387 4.417096 -0.171500 -1.134540 5.230693 -2.401764 0.824688 5.303618 -1.046392 1.949221 -0.234405 -69.669880 -8.508703 60.511496 0.480631 -39.787859 -0.038305 -2.466206 0.928515 4.493241 0.540950 7.579461 2.077610 69.805444 3.655081 48.097181 0.454275 70.805199 0.972595 0.000000 0.000000 -0.000000 3.667090 13.870376 -13.238362 4.158595 8.388958 17.718334 0.000000 -0.000000 0.000000 -2.422531 -8.222283 -12.776390 -1.485864 -2.837414 14.590474 
0.687837 0.107472 -1.056308 -1.394719 2.692936 -2.261036 0.000000 -0.000000 0.000000 -0.364133 1.696439 0.701412 -2.474523 1.116956 4.954830 0.000000 0.000000 0.000000 -2.800956 1.075657 4.406263 -0.170323 -1.129677 5.235000 -2.378046 0.811962 5.285850 -1.058601 1.951426 -0.234941 -69.670220 -8.507174 60.504546 0.480507 -39.761433 -0.040106 -2.442614 0.916980 4.477746 0.522309 7.573302 2.069448 69.793488 3.659130 48.130858 0.434437 70.561787 0.951897 0.000000 0.000000 -0.000000 3.700552 13.956945 -13.256444 4.171978 8.370490 17.729170 0.000000 -0.000000 0.000000 -2.387443 -8.217954 -12.785647 -1.451913 -2.785796 14.594944 
0.603593 0.108297 -1.089998 -1.355852 2.712736 -2.261087 0.000000 -0.000000 0.000000 -0.345962 1.681516 0.691863 -2.443179 1.099777 4.935731 0.000000 0.000000 0.000000 -2.770927 1.060136 4.398225 -0.170623 -1.121883 5.239707 -2.352430 0.797789 5.269898 -1.071047 1.955011 -0.235804 -69.655993 -8.519112 60.515139 0.480775 -39.722362 -0.043058 -2.416220 0.903130 4.463644 0.504687 7.565139 2.062632 69.734178 3.707139 48.166621 0.420769 70.416115 0.939186 0.000000 0.000000 -0.000000 3.734987 14.041337 -13.275451 4.186678 8.353429 17.741596 0.000000 -0.000000 0.000000 -2.354381 -8.213293 -12.798554 -1.417258 -2.734124 14.605740 
0.519966 0.109072 -1.123397 -1.316127 2.728964 -2.261150 0.000000 -0.000000 0.000000 -0.328474 1.665948 0.687273 -2.411949 1.081234 4.919368 0.000000 0.000000 0.000000 -2.740440 1.044266 4.391398 -0.169110 -1.112844 5.244991 -2.326824 0.782797 5.254380 -1.086957 1.953332 -0.235894 -69.637243 -8.519389 60.518116 0.480342 -39.641742 -0.045077 -2.391004 0.889791 4.450764 0.489458 7.548945 2.055912 69.597661 3.785654 48.153538 0.412597 70.422461 0.932209 0.000000 0.000000 -0.000000 3.769348 14.132913 -13.298515 4.199815 8.333868 17.766174 0.000000 -0.000000 0.000000 -2.323907 -8.208156 -12.809975 -1.386496 -2.689307 14.617063 
0.436639 0.109742 -1.156567 -1.274128 2.743503 -2.262427 0.000000 -0.000000 0.000000 -0.312095 1.651418 0.685972 -2.381840 1.062926 4.903595 0.000000 0.000000 0.000000 -2.711744 1.027872 4.385835 -0.168905 -1.101605 5.251654 -2.302588 0.766915 5.240544 -1.102348 1.957410 -0.236798 -69.619715 -8.519683 60.489948 0.478587 -39.551758 -0.045744 -2.366155 0.874048 4.439386 0.478671 7.529161 2.050452 69.387617 3.887580 48.124208 0.414201 70.614746 0.935835 0.000000 0.000000 -0.000000 3.800624 14.222761 -13.314893 4.213483 8.317820 17.784037 0.000000 -0.000000 0.000000 -2.297972 -8.206422 -12.821214 -1.360491 -2.654147 14.633290 
0.353340 0.110369 -1.189596 -1.229975 2.762229 -2.264270 0.000000 -0.000000 0.000000 -0.296151 1.635813 0.693225 -2.354847 1.044356 4.889914 0.000000 0.000000 0.000000 -2.685362 1.010654 4.380817 -0.169425 -1.089322 5.250583 -2.279886 0.749842 5.227502 -1.117894 1.965628 -0.240072 -69.598298 -8.516444 60.455437 0.477874 -39.444806 -0.046738 -2.344386 0.858720 4.429142 0.473884 7.504633 2.047807 69.126591 4.009342 48.057974 0.427894 70.985281 0.951911 0.000000 0.000000 -0.000000 3.830694 14.308687 -13.331569 4.226202 8.302907 17.804103 0.000000 -0.000000 0.000000 -2.274104 -8.207973 -12.830220 -1.340346 -2.629448 14.647375 
0.269833 0.110945 -1.222573 -1.182569 2.779326 -2.266189 0.000000 -0.000000 0.000000 -0.280567 1.621613 0.707517 -2.332710 1.028164 4.877913 0.000000 0.000000 0.000000 -2.664045 0.995652 4.375004 -0.170131 -1.077136 5.246094 -2.261430 0.734380 5.216358 -1.136883 1.970298 -0.242710 -69.580690 -8.510147 60.411961 0.476178 -39.336712 -0.048027 -2.326566 0.845043 4.420094 0.467554 7.483861 2.047775 68.872944 4.154360 47.953679 0.454457 71.489480 0.979017 0.000000 0.000000 -0.000000 3.856526 14.389005 -13.345507 4.238072 8.287606 17.814147 0.000000 -0.000000 0.000000 -2.255585 -8.209639 -12.838874 -1.328288 -2.618738 14.664433 
0.185848 0.111594 -1.255549 -1.131717 2.797887 -2.268053 0.000000 -0.000000 0.000000 -0.263872 1.608548 0.729062 -2.314094 1.014569 4.866037 0.000000 0.000000 0.000000 -2.646882 0.982961 4.370421 -0.172734 -1.066680 5.241192 -2.247063 0.721430 5.202809 -1.157098 1.978716 -0.244949 -69.573867 -8.492028 60.382741 0.474721 -39.203256 -0.047930 -2.312227 0.832812 4.411436 0.459752 7.484924 2.050062 68.640506 4.245061 47.892118 0.474894 71.927113 0.999290 0.000000 0.000000 -0.000000 3.879195 14.460421 -13.355442 4.248259 8.272363 17.826025 0.000000 -0.000000 0.000000 -2.239289 -8.211884 -12.850691 -1.320951 -2.614908 14.689334 
0.101777 0.112249 -1.288633 -1.078226 2.814383 -2.270408 0.000000 -0.000000 0.000000 -0.245584 1.596350 0.756691 -2.299398 1.003361 4.854301 0.000000 0.000000 0.000000 -2.632827 0.972432 4.364238 -0.177105 -1.054032 5.231145 -2.234276 0.709909 5.188703 -1.176060 1.989781 -0.247835 -69.570791 -8.483755 60.329986 0.473624 -39.064486 -0.048326 -2.300192 0.821968 4.401594 0.444323 7.488199 2.052976 68.440737 4.285478 47.875145 0.498724 72.372981 1.023773 0.000000 0.000000 -0.000000 3.897122 14.528903 -13.363430 4.257884 8.261225 17.833579 0.000000 -0.000000 0.000000 -2.226234 -8.212487 -12.858365 -1.322887 -2.621543 14.709751 
0.018079 0.112946 -1.321756 -1.022197 2.832351 -2.271741 -0.000000 -0.000000 0.000000 -0.229567 1.586269 0.783229 -2.287092 0.993860 4.842831 0.000000 0.000000 0.000000 -2.620635 0.962693 4.357547 -0.180401 -1.041854 5.221583 -2.223622 0.699652 5.176060 -1.191108 1.999770 -0.252201 -69.575836 -8.469813 60.286367 0.473287 -38.929516 -0.049636 -2.289690 0.812220 4.392020 0.418974 7.493717 2.055106 68.277637 4.306503 47.869547 0.519563 72.734817 1.045044 0.000000 0.000000 -0.000000 3.911993 14.588794 -13.366349 4.265241 8.251430 17.833272 0.000000 -0.000000 0.000000 -2.213534 -8.214500 -12.861515 -1.327865 -2.634872 14.722445 
-0.064831 0.113599 -1.355047 -0.963319 2.846586 -2.272035 -0.000000 -0.000000 0.000000 -0.214799 1.574619 0.808954 -2.274383 0.985082 4.830999 0.000000 0.000000 0.000000 -2.609109 0.954357 4.351676 -0.184001 -1.027436 5.210130 -2.214044 0.691050 5.162641 -1.204269 2.014593 -0.255711 -69.590822 -8.450363 60.236757 0.473312 -38.788993 -0.050611 -2.280560 0.803681 4.383245 0.395998 7.491560 2.055414 68.147130 4.296893 47.887099 0.531123 72.949151 1.055796 0.000000 0.000000 -0.000000 3.923366 14.638447 -13.369037 4.271628 8.242642 17.831389 0.000000 -0.000000 0.000000 -2.202163 -8.218679 -12.863399 -1.340211 -2.653089 14.731804 
-0.146554 0.114242 -1.388461 -0.901634 2.862712 -2.271488 -0.000000 -0.000000 0.000000 -0.203060 1.566086 0.826319 -2.261994 0.977194 4.819838 0.000000 0.000000 0.000000 -2.596626 0.946387 4.347599 -0.187732 -1.013993 5.198724 -2.203519 0.684259 5.151888 -1.215868 2.024608 -0.259374 -69.618677 -8.436106 60.191221 0.473060 -38.628114 -0.051653 -2.269447 0.796548 4.375502 0.373958 7.487488 2.052823 68.091787 4.272211 47.940214 0.530911 72.923128 1.052735 0.000000 0.000000 -0.000000 3.931759 14.685445 -13.372869 4.277664 8.236115 17.828813 0.000000 -0.000000 0.000000 -2.193004 -8.223688 -12.868014 -1.355039 -2.672947 14.744596 
-0.225695 0.114949 -1.422097 -0.840550 2.874745 -2.267093 -0.000000 -0.000000 0.000000 -0.193510 1.556076 0.839657 -2.249058 0.969636 4.809645 0.000000 0.000000 0.000000 -2.583507 0.937703 4.345187 -0.192860 -1.000444 5.185537 -2.191871 0.676498 5.142593 -1.228990 2.034058 -0.262807 -69.628878 -8.431944 60.180382 0.473567 -38.463429 -0.053376 -2.257830 0.788709 4.368913 0.356041 7.477713 2.047145 68.119888 4.247732 48.017655 0.512883 72.615318 1.030676 0.000000 0.000000 -0.000000 3.936621 14.718204 -13.378819 4.283544 8.233245 17.824574 0.000000 -0.000000 0.000000 -2.188473 -8.231311 -12.871960 -1.371839 -2.697811 14.755910 
-0.300944 0.115691 -1.455823 -0.780200 2.887145 -2.258882 -0.000000 -0.000000 0.000000 -0.184648 1.547729 0.843635 -2.233802 0.961142 4.798766 0.000000 0.000000 0.000000 -2.568395 0.929014 4.342556 -0.197193 -0.987590 5.173245 -2.179763 0.670099 5.133094 -1.238029 2.034289 -0.263999 -69.655391 -8.435677 60.167647 0.474271 -38.257415 -0.056064 -2.245501 0.781548 4.362730 0.335133 7.463677 2.037081 68.204996 4.214280 48.171838 0.474991 71.943810 0.987867 0.000000 0.000000 -0.000000 3.934734 14.744930 -13.383559 4.287490 8.231190 17.817782 0.000000 -0.000000 0.000000 -2.188302 -8.236245 -12.879760 -1.389739 -2.727028 14.772318 
-0.370910 0.116456 -1.489776 -0.720742 2.896766 -2.249089 -0.000000 -0.000000 0.000000 -0.177952 1.537224 0.843121 -2.215593 0.950617 4.785436 0.000000 0.000000 0.000000 -2.551166 0.917916 4.339029 -0.200196 -0.973745 5.161310 -2.165589 0.661612 5.122870 -1.246278 2.033084 -0.266428 -69.648630 -8.455788 60.174952 0.474739 -38.013476 -0.057165 -2.230062 0.772224 4.354210 0.322972 7.446246 2.024514 68.352620 4.185198 48.377914 0.427941 70.791260 0.936893 0.000000 0.000000 -0.000000 3.933463 14.759872 -13.389835 4.290110 8.236186 17.814932 0.000000 -0.000000 0.000000 -2.193195 -8.240054 -12.887700 -1.406753 -2.759670 14.788020 
-0.434293 0.117258 -1.523902 -0.662777 2.903477 -2.236358 -0.000000 -0.000000 0.000000 -0.173589 1.525823 0.828833 -2.194029 0.935873 4.770367 0.000000 0.000000 0.000000 -2.530417 0.902671 4.332874 -0.201455 -0.962840 5.151275 -2.149221 0.651723 5.109387 -1.260118 2.027250 -0.267190 -69.644432 -8.476958 60.153287 0.476094 -37.765360 -0.060657 -2.213015 0.759983 4.343366 0.316494 7.429506 2.011496 68.520757 4.180123 48.618307 0.373418 69.385336 0.878703 0.000000 0.000000 -0.000000 3.926180 14.765886 -13.398597 4.291438 8.242960 17.810265 0.000000 -0.000000 0.000000 -2.200344 -8.240057 -12.898069 -1.423693 -2.798147 14.805424 
-0.490393 0.118115 -1.558063 -0.609850 2.898517 -2.220000 -0.000000 -0.000000 0.000000 -0.169413 1.511355 0.814758 -2.169015 0.918080 4.755999 0.000000 0.000000 0.000000 -2.505823 0.883797 4.327504 -0.201619 -0.952895 5.145197 -2.129820 0.637159 5.096444 -1.274558 2.020558 -0.268181 -69.602793 -8.517913 60.132423 0.477204 -37.469428 -0.063284 -2.192185 0.744993 4.333008 0.324145 7.417327 1.997738 68.709528 4.188821 48.883147 0.322909 67.814637 0.824203 0.000000 0.000000 -0.000000 3.913887 14.751986 -13.414747 4.291436 8.254683 17.812939 0.000000 -0.000000 0.000000 -2.212710 -8.242003 -12.910877 -1.442211 -2.843947 14.827279 
